<?xml version="1.0" encoding="utf-8"?>
<!-- Generator: Adobe Illustrator 18.1.1, SVG Export Plug-In . SVG Version: 6.00 Build 0)  -->
<!DOCTYPE svg PUBLIC "-//W3C//DTD SVG 1.1//EN" "http://www.w3.org/Graphics/SVG/1.1/DTD/svg11.dtd">
<svg version="1.1" id="Ebene_1" xmlns="http://www.w3.org/2000/svg" xmlns:xlink="http://www.w3.org/1999/xlink" x="0px" y="0px"
	 viewBox="0 0 2267.719971 2267.719971" enable-background="new 0 0 2267.719971 2267.719971" xml:space="preserve">
<g>
	<g>
		<path fill="#FFFFFF" d="M1133.5979,292.904083l544.378418,241.945892L1133.5979,788.893127L589.219788,534.849976
			L1133.5979,292.904083"/>
	</g>
	<g>
		<g>
			
				<line fill="none" stroke="#767676" stroke-width="5" stroke-linecap="round" stroke-linejoin="round" x1="1133.859985" y1="1133.858276" x2="1133.859985" y2="1131.358276"/>
			
				<line fill="none" stroke="#767676" stroke-width="5" stroke-linecap="round" stroke-linejoin="round" stroke-dasharray="4.797297,19.18919,4.797297,19.18919" x1="1133.859985" y1="1112.169067" x2="1133.859985" y2="1073.790649"/>
			
				<line fill="none" stroke="#767676" stroke-width="5" stroke-linecap="round" stroke-linejoin="round" stroke-dasharray="4.797297,19.18919,4.797297,19.18919,4.797297,19.18919" x1="1133.859985" y1="1064.196045" x2="1133.859985" y2="785.952881"/>
			
				<line fill="none" stroke="#767676" stroke-width="5" stroke-linecap="round" stroke-linejoin="round" x1="1133.859985" y1="776.358276" x2="1133.859985" y2="773.858276"/>
		</g>
	</g>
	<g>
		<g>
			
				<line fill="none" stroke="#767676" stroke-width="5" stroke-linecap="round" stroke-linejoin="round" x1="1133.598022" y1="1130.332153" x2="1135.990845" y2="1131.056519"/>
			
				<line fill="none" stroke="#767676" stroke-width="5" stroke-linecap="round" stroke-linejoin="round" stroke-dasharray="4.929169,19.716677,4.929169,19.716677" x1="1154.861572" y1="1136.769897" x2="1192.603027" y2="1148.196655"/>
			
				<line fill="none" stroke="#767676" stroke-width="5" stroke-linecap="round" stroke-linejoin="round" stroke-dasharray="4.929169,19.716677,4.929169,19.716677,4.929169,19.716677" x1="1202.03833" y1="1151.053345" x2="1475.664062" y2="1233.897217"/>
			
				<line fill="none" stroke="#767676" stroke-width="5" stroke-linecap="round" stroke-linejoin="round" x1="1485.099487" y1="1236.753906" x2="1487.492188" y2="1237.478394"/>
		</g>
	</g>
	<g>
		<g>
			
				<line fill="none" stroke="#767676" stroke-width="5" stroke-linecap="round" stroke-linejoin="round" x1="1133.598022" y1="1130.332153" x2="1131.829834" y2="1132.099487"/>
			
				<line fill="none" stroke="#767676" stroke-width="5" stroke-linecap="round" stroke-linejoin="round" stroke-dasharray="4.954441,19.817764,4.954441,19.817764" x1="1117.813232" y1="1146.109375" x2="1089.780029" y2="1174.129272"/>
			
				<line fill="none" stroke="#767676" stroke-width="5" stroke-linecap="round" stroke-linejoin="round" stroke-dasharray="4.954441,19.817764,4.954441,19.817764,4.954441,19.817764" x1="1082.771729" y1="1181.134277" x2="879.530884" y2="1384.27832"/>
			
				<line fill="none" stroke="#767676" stroke-width="5" stroke-linecap="round" stroke-linejoin="round" x1="872.522583" y1="1391.283325" x2="870.754395" y2="1393.050659"/>
		</g>
	</g>
	<g>
		<path fill="#FFFFFF" d="M344.237366,1102.618408l545.193054,242.652344v653.717529l-545.193054-242.652344V1102.618408"/>
	</g>
	<g>
		<path fill="#FFFFFF" d="M1972.98999,812.435791v653.717529l-545.192871,242.652222v-653.717407L1972.98999,812.435791"/>
	</g>
	<g>
		<path fill="#FFFFFF" stroke="#767676" stroke-width="3.991794" stroke-miterlimit="10" d="M1133.598145,330.259186
			l462.034058,205.348358l-462.03418,215.615784L671.564209,535.607605L1133.598145,330.259186 M1133.598022,253.508667
			L502.378052,534.050842l631.219971,294.569153l631.220215-294.569153L1133.598022,253.508667L1133.598022,253.508667z"/>
	</g>
	<g>
		<path fill="#FFFFFF" stroke="#767676" stroke-width="3.991794" stroke-miterlimit="10" d="M378.372864,1155.175293
			l476.922058,212.266479v578.989624l-476.922058-212.266479V1155.175293 M308.237366,1047.190918v732.5271l617.193054,274.697754
			v-732.5271L308.237366,1047.190918L308.237366,1047.190918z"/>
	</g>
	<g>
		<path fill="#FFFFFF" stroke="#767676" stroke-width="3.991794" stroke-miterlimit="10" d="M1938.854614,864.992615v578.989563
			l-476.921997,212.266602v-578.989746L1938.854614,864.992615 M2008.990112,757.00824l-617.192993,274.697693v732.5271
			l617.192993-274.697632V757.00824L2008.990112,757.00824z"/>
	</g>
	<path fill="#767676" d="M740.235474,1702.797119c0,36.915039-13.283752,60.085205-39.851379,69.51062
		s-63.53125,3.595215-110.884888-17.487915c-43.626831-19.42395-82.219757-44.814087-115.77887-76.158081v-80.54187
		c27.588989,24.588379,50.940552,43.654663,70.054626,57.198608c19.108032,13.54126,36.586731,23.84021,52.436096,30.896851
		c19.016785,8.466797,33.601624,11.324829,43.766663,8.579468c10.158875-2.748047,15.241394-11.294678,15.241394-25.654541
		c0-8.012817-2.237244-16.146362-6.711792-24.376099c-4.474548-8.242065-11.04657-17.186768-19.716003-26.822266
		c-8.669434-9.635376-26.336609-26.730103-52.995361-51.28125c-24.986938-22.870605-43.724121-42.496582-56.211487-58.865723
		c-12.4935-16.371948-22.470032-33.398438-29.923553-51.076904c-7.459595-17.68103-11.186371-36.119873-11.186371-55.319092
		c0-36.17334,12.256378-59.144409,36.775208-68.922607c24.512695-9.781006,58.400085-5.040771,101.656067,14.218018
		c21.254089,9.462891,41.529358,21.006958,60.825867,34.632202c19.296448,13.625244,39.474487,29.697754,60.546204,48.210938
		l-27.965942,54.946655c-21.813416-18.661011-39.851379-32.941895-54.114014-42.830322s-28.294189-17.910889-42.088684-24.052612
		c-16.408691-7.305542-28.993408-9.090698-37.754028-5.34314c-8.766663,3.744873-13.143982,11.766479-13.143982,24.071533
		c0,7.648071,1.769165,15.098877,5.313538,22.367432c3.53833,7.253662,9.180115,15.27356,16.919373,24.020752
		c7.733215,8.768677,26.050903,26.469116,54.953064,53.137695c38.216003,35.290039,64.412781,65.265137,78.584167,89.947144
		C733.146729,1650.469604,740.235474,1676.132202,740.235474,1702.797119z"/>
	<path fill="#767676" d="M1271.14978,463.581909c50.383301,22.4534,74.637329,46.044647,72.753052,70.769775
		c-1.884277,24.725098-29.90686,49.156067-84.058472,73.288879l-86.675537,38.627136L867.082825,509.859833l96.096802-42.825745
		c49.964478-22.266785,101.958801-33.682098,155.97406-34.241913
		C1173.168823,432.232361,1223.834229,442.495605,1271.14978,463.581909z M1205.4104,494.371643
		c-65.73938-29.296906-127.641968-31.006775-185.703308-5.131622l-34.544556,15.394867l199.311829,88.82373l27.844971-12.40918
		C1274.845459,553.184509,1272.54248,524.289246,1205.4104,494.371643z"/>
	<path fill="#767676" d="M1899.677246,1383.114746l-100.766235,49.146973l-109.640503-122.865601l-37.501099,45.199585v149.431641
		l-88.74292,43.282837v-418.523193l88.74292-43.282837v191.513062l34.924683-66.271973l113.362061-197.565308l98.475952-48.029968
		l-145.99646,256.422424L1899.677246,1383.114746z"/>
	<circle fill="#767676" cx="1133.859985" cy="1133.858276" r="37.5"/>
</g>
<g>
</g>
<g>
</g>
<g>
</g>
<g>
</g>
<g>
</g>
<g>
</g>
</svg>
